<svg width="95" height="124" viewBox="0 0 95 124" fill="none" xmlns="http://www.w3.org/2000/svg">
<path id="Vector" d="M32.2987 88.0702C32.2987 88.0702 52.9176 57.6892 53.4745 56.8604C54.0321 56.0316 55.497 53.4023 55.5717 51.692C55.7421 47.8135 52.6457 45.0359 49.0488 45.0359C45.4526 45.0359 42.5259 48.0216 42.5259 51.692C42.5259 51.9021 42.5371 52.111 42.5561 52.3165H32.583C32.5752 52.109 32.5706 51.9008 32.5706 51.692C32.5706 42.4052 39.9485 34.8775 49.0488 34.8775C56.8074 34.8775 63.3126 40.349 65.0632 47.716C65.3659 48.9908 65.5277 50.3223 65.5277 51.692C65.5277 55.1679 64.4906 58.3948 62.7197 61.0749L51.2961 77.9118H67.3878L60.4947 88.0702H32.2987ZM88.39 88.0702V34.8775H76.667L69.7739 45.0359H78.4346V88.0702H88.39ZM79.9553 108.853C73.7495 111.531 67.1512 112.889 60.3447 112.889C53.5374 112.889 46.9398 111.531 40.734 108.853C34.7353 106.264 29.3452 102.555 24.7144 97.83C20.0837 93.1049 16.4488 87.6051 13.9119 81.484C11.2867 75.1513 9.956 68.4195 9.956 61.4735H9.95862C9.97172 54.5631 11.2998 47.8662 13.9119 41.5645C16.4488 35.4434 20.0837 29.9435 24.7144 25.2184C29.3452 20.4934 34.7353 16.7848 40.734 14.1957C46.9398 11.5176 53.5374 10.1597 60.3447 10.1597C67.1512 10.1597 73.7495 11.5176 79.9553 14.1957C83.184 15.5891 86.2345 17.3099 89.0871 19.3358L94.7595 10.9944C84.9975 4.0656 73.1369 0 60.3447 0C27.0501 0 0.0550345 27.5131 0.00131034 61.4735H0C0 95.4807 27.0167 123.048 60.3447 123.048C73.1369 123.048 84.9975 118.983 94.7595 112.054L89.0871 103.713C86.2345 105.739 83.184 107.459 79.9553 108.853Z" fill="#C6B68B"/>
</svg>
